<svg width="609.1" height="72.001" viewBox="0 0 609.1 72.001" xmlns="http://www.w3.org/2000/svg"><g id="svgGroup" stroke-linecap="round" fill-rule="evenodd" font-size="9pt" stroke="#ffffff" stroke-width="0" fill="#ffffff" style="stroke:#ffffff;stroke-width:0;fill:#ffffff"><path d="M 46.1 71.001 L 39 1.001 L 49.6 1.001 L 54.5 54.801 L 54.7 54.801 L 59.9 1.001 L 71.9 1.001 L 77.1 54.801 L 77.3 54.801 L 82.2 1.001 L 91.7 1.001 L 84.6 71.001 L 70.9 71.001 L 65.9 23.801 L 65.7 23.801 L 60.7 71.001 L 46.1 71.001 Z M 435.5 71.001 L 435.5 1.001 L 449.3 1.001 L 460 42.901 L 460.2 42.901 L 460.2 1.001 L 470 1.001 L 470 71.001 L 458.7 71.001 L 445.5 19.901 L 445.3 19.901 L 445.3 71.001 L 435.5 71.001 Z M 574.6 71.001 L 574.6 1.001 L 588.4 1.001 L 599.1 42.901 L 599.3 42.901 L 599.3 1.001 L 609.1 1.001 L 609.1 71.001 L 597.8 71.001 L 584.6 19.901 L 584.4 19.901 L 584.4 71.001 L 574.6 71.001 Z M 228.3 71.001 L 228.3 1.001 L 239.3 1.001 L 239.3 30.501 L 253.3 1.001 L 264.3 1.001 L 251.2 26.701 L 264.5 71.001 L 253 71.001 L 243.7 39.801 L 239.3 48.701 L 239.3 71.001 L 228.3 71.001 Z M 319.2 71.001 L 331.9 35.201 L 319.8 1.001 L 331.4 1.001 L 338.8 23.601 L 339 23.601 L 346.6 1.001 L 357 1.001 L 344.9 35.201 L 357.6 71.001 L 346 71.001 L 338 46.601 L 337.8 46.601 L 329.6 71.001 L 319.2 71.001 Z M 95.4 54.401 L 95.4 50.401 L 105.8 50.401 L 105.8 55.201 Q 105.8 61.207 110.247 61.908 A 8.05 8.05 0 0 0 111.5 62.001 Q 114.3 62.001 115.75 60.351 Q 117.138 58.771 117.197 55.314 A 18.22 18.22 0 0 0 117.2 55.001 A 16.438 16.438 0 0 0 116.668 50.742 A 13.651 13.651 0 0 0 115.2 47.251 A 19.081 19.081 0 0 0 113.642 45.055 Q 111.534 42.45 107.8 39.201 A 72.472 72.472 0 0 1 103.95 35.563 Q 100.282 31.814 98.425 28.573 A 20.769 20.769 0 0 1 98.3 28.351 A 21.525 21.525 0 0 1 95.68 19.461 A 26.199 26.199 0 0 1 95.6 17.401 A 26.379 26.379 0 0 1 96.052 12.358 Q 96.627 9.407 97.934 7.11 A 13.862 13.862 0 0 1 99.8 4.551 A 13.5 13.5 0 0 1 106.33 0.695 Q 108.517 0.098 111.133 0.014 A 27.056 27.056 0 0 1 112 0.001 Q 119.9 0.001 123.95 4.551 Q 128 9.101 128 17.601 L 128 20.501 L 117.6 20.501 L 117.6 16.901 Q 117.6 13.488 116.342 11.827 A 4.111 4.111 0 0 0 116.2 11.651 A 4.506 4.506 0 0 0 113.736 10.179 A 7.037 7.037 0 0 0 112.1 10.001 Q 106.6 10.001 106.6 16.701 Q 106.6 20.501 108.65 23.801 Q 110.468 26.728 114.922 30.756 A 82.526 82.526 0 0 0 116.1 31.801 Q 123 37.801 125.6 42.701 Q 128.2 47.601 128.2 54.201 Q 128.2 60.335 126.038 64.434 A 13.911 13.911 0 0 1 123.95 67.401 A 13.66 13.66 0 0 1 117.354 71.295 Q 115.135 71.901 112.48 71.987 A 27.431 27.431 0 0 1 111.6 72.001 A 22.4 22.4 0 0 1 106.875 71.534 Q 102.287 70.543 99.5 67.451 Q 96.041 63.612 95.5 56.96 A 31.618 31.618 0 0 1 95.4 54.401 Z M 148.6 54.401 L 148.6 50.401 L 159 50.401 L 159 55.201 Q 159 61.207 163.447 61.908 A 8.05 8.05 0 0 0 164.7 62.001 Q 167.5 62.001 168.95 60.351 Q 170.338 58.771 170.397 55.314 A 18.22 18.22 0 0 0 170.4 55.001 A 16.438 16.438 0 0 0 169.868 50.742 A 13.651 13.651 0 0 0 168.4 47.251 A 19.081 19.081 0 0 0 166.842 45.055 Q 164.734 42.45 161 39.201 A 72.472 72.472 0 0 1 157.15 35.563 Q 153.482 31.814 151.625 28.573 A 20.769 20.769 0 0 1 151.5 28.351 A 21.525 21.525 0 0 1 148.88 19.461 A 26.199 26.199 0 0 1 148.8 17.401 A 26.379 26.379 0 0 1 149.252 12.358 Q 149.827 9.407 151.134 7.11 A 13.862 13.862 0 0 1 153 4.551 A 13.5 13.5 0 0 1 159.53 0.695 Q 161.717 0.098 164.333 0.014 A 27.056 27.056 0 0 1 165.2 0.001 Q 173.1 0.001 177.15 4.551 Q 181.2 9.101 181.2 17.601 L 181.2 20.501 L 170.8 20.501 L 170.8 16.901 Q 170.8 13.488 169.542 11.827 A 4.111 4.111 0 0 0 169.4 11.651 A 4.506 4.506 0 0 0 166.936 10.179 A 7.037 7.037 0 0 0 165.3 10.001 Q 159.8 10.001 159.8 16.701 Q 159.8 20.501 161.85 23.801 Q 163.668 26.728 168.122 30.756 A 82.526 82.526 0 0 0 169.3 31.801 Q 176.2 37.801 178.8 42.701 Q 181.4 47.601 181.4 54.201 Q 181.4 60.335 179.238 64.434 A 13.911 13.911 0 0 1 177.15 67.401 A 13.66 13.66 0 0 1 170.554 71.295 Q 168.335 71.901 165.68 71.987 A 27.431 27.431 0 0 1 164.8 72.001 A 22.4 22.4 0 0 1 160.075 71.534 Q 155.487 70.543 152.7 67.451 Q 149.241 63.612 148.7 56.96 A 31.618 31.618 0 0 1 148.6 54.401 Z M 476.3 54.401 L 476.3 50.401 L 486.7 50.401 L 486.7 55.201 Q 486.7 61.207 491.147 61.908 A 8.05 8.05 0 0 0 492.4 62.001 Q 495.2 62.001 496.65 60.351 Q 498.038 58.771 498.097 55.314 A 18.22 18.22 0 0 0 498.1 55.001 A 16.438 16.438 0 0 0 497.568 50.742 A 13.651 13.651 0 0 0 496.1 47.251 A 19.081 19.081 0 0 0 494.542 45.055 Q 492.434 42.45 488.7 39.201 A 72.472 72.472 0 0 1 484.85 35.563 Q 481.182 31.814 479.325 28.573 A 20.769 20.769 0 0 1 479.2 28.351 A 21.525 21.525 0 0 1 476.58 19.461 A 26.199 26.199 0 0 1 476.5 17.401 A 26.379 26.379 0 0 1 476.952 12.358 Q 477.527 9.407 478.834 7.11 A 13.862 13.862 0 0 1 480.7 4.551 A 13.5 13.5 0 0 1 487.23 0.695 Q 489.417 0.098 492.033 0.014 A 27.056 27.056 0 0 1 492.9 0.001 Q 500.8 0.001 504.85 4.551 Q 508.9 9.101 508.9 17.601 L 508.9 20.501 L 498.5 20.501 L 498.5 16.901 Q 498.5 13.488 497.242 11.827 A 4.111 4.111 0 0 0 497.1 11.651 A 4.506 4.506 0 0 0 494.636 10.179 A 7.037 7.037 0 0 0 493 10.001 Q 487.5 10.001 487.5 16.701 Q 487.5 20.501 489.55 23.801 Q 491.368 26.728 495.822 30.756 A 82.526 82.526 0 0 0 497 31.801 Q 503.9 37.801 506.5 42.701 Q 509.1 47.601 509.1 54.201 Q 509.1 60.335 506.938 64.434 A 13.911 13.911 0 0 1 504.85 67.401 A 13.66 13.66 0 0 1 498.254 71.295 Q 496.035 71.901 493.38 71.987 A 27.431 27.431 0 0 1 492.5 72.001 A 22.4 22.4 0 0 1 487.775 71.534 Q 483.187 70.543 480.4 67.451 Q 476.941 63.612 476.4 56.96 A 31.618 31.618 0 0 1 476.3 54.401 Z M 285.7 71.001 L 285.7 1.001 L 315.7 1.001 L 315.7 11.001 L 296.7 11.001 L 296.7 29.501 L 311.8 29.501 L 311.8 39.501 L 296.7 39.501 L 296.7 61.001 L 315.7 61.001 L 315.7 71.001 L 285.7 71.001 Z M 399.2 71.001 L 399.2 1.001 L 429.2 1.001 L 429.2 11.001 L 410.2 11.001 L 410.2 29.501 L 425.3 29.501 L 425.3 39.501 L 410.2 39.501 L 410.2 61.001 L 429.2 61.001 L 429.2 71.001 L 399.2 71.001 Z M 0 71.001 L 11.4 1.001 L 26.3 1.001 L 37.7 71.001 L 26.7 71.001 L 24.7 57.101 L 24.7 57.301 L 12.2 57.301 L 10.2 71.001 L 0 71.001 Z M 371.4 71.001 L 371.4 11.001 L 359.9 11.001 L 359.9 1.001 L 393.9 1.001 L 393.9 11.001 L 382.4 11.001 L 382.4 71.001 L 371.4 71.001 Z M 187.7 71.001 L 187.7 1.001 L 204.5 1.001 Q 210.23 1.001 213.958 3.149 A 12.152 12.152 0 0 1 216.8 5.401 A 14.033 14.033 0 0 1 219.843 10.725 Q 220.537 12.864 220.775 15.458 A 31.07 31.07 0 0 1 220.9 18.301 L 220.9 53.701 A 28.154 28.154 0 0 1 220.5 58.613 Q 220.025 61.288 218.987 63.4 A 13.197 13.197 0 0 1 216.8 66.601 A 12.931 12.931 0 0 1 211.089 70.097 Q 209.024 70.747 206.523 70.929 A 27.789 27.789 0 0 1 204.5 71.001 L 187.7 71.001 Z M 533.8 54.401 L 533.8 17.601 A 26.391 26.391 0 0 1 534.263 12.497 Q 534.855 9.494 536.206 7.16 A 14.01 14.01 0 0 1 538.1 4.601 Q 542.183 0.232 549.694 0.012 A 27.536 27.536 0 0 1 550.5 0.001 A 22.814 22.814 0 0 1 555.406 0.496 Q 558.608 1.201 560.98 2.91 A 13.123 13.123 0 0 1 562.9 4.601 Q 566.713 8.68 567.145 15.746 A 30.402 30.402 0 0 1 567.2 17.601 L 567.2 54.401 A 26.391 26.391 0 0 1 566.737 59.504 Q 566.145 62.508 564.794 64.841 A 14.01 14.01 0 0 1 562.9 67.401 Q 558.817 71.769 551.306 71.989 A 27.536 27.536 0 0 1 550.5 72.001 A 22.814 22.814 0 0 1 545.594 71.505 Q 542.392 70.8 540.02 69.091 A 13.123 13.123 0 0 1 538.1 67.401 Q 534.287 63.322 533.855 56.255 A 30.402 30.402 0 0 1 533.8 54.401 Z M 515.4 71.001 L 515.4 1.001 L 526.4 1.001 L 526.4 71.001 L 515.4 71.001 Z M 198.7 61.001 L 204.3 61.001 Q 206.744 61.001 208.164 59.689 A 4.571 4.571 0 0 0 208.45 59.401 A 4.717 4.717 0 0 0 209.348 57.883 Q 209.865 56.515 209.898 54.48 A 17.299 17.299 0 0 0 209.9 54.201 L 209.9 17.801 Q 209.9 14.201 208.45 12.601 A 4.697 4.697 0 0 0 206.009 11.19 Q 205.24 11.004 204.329 11.001 A 9.11 9.11 0 0 0 204.3 11.001 L 198.7 11.001 L 198.7 61.001 Z M 556.2 55.101 L 556.2 16.901 A 12.201 12.201 0 0 0 555.956 14.339 Q 555.02 10.001 550.5 10.001 A 6.668 6.668 0 0 0 548.04 10.419 Q 545.136 11.566 544.835 15.863 A 14.845 14.845 0 0 0 544.8 16.901 L 544.8 55.101 A 12.201 12.201 0 0 0 545.044 57.662 Q 545.98 62.001 550.5 62.001 A 6.668 6.668 0 0 0 552.96 61.583 Q 555.864 60.435 556.165 56.138 A 14.845 14.845 0 0 0 556.2 55.101 Z M 13.5 47.801 L 23.4 47.801 L 18.5 13.201 L 18.3 13.201 L 13.5 47.801 Z" vector-effect="non-scaling-stroke"/></g></svg>