<svg width="206.4" height="72.001" viewBox="0 0 206.4 72.001" xmlns="http://www.w3.org/2000/svg"><g id="svgGroup" stroke-linecap="round" fill-rule="evenodd" font-size="9pt" stroke="#ffffff" stroke-width="0" fill="#ffffff" style="stroke:#ffffff;stroke-width:0;fill:#ffffff"><path d="M 46.1 71.001 L 39 1.001 L 49.6 1.001 L 54.5 54.801 L 54.7 54.801 L 59.9 1.001 L 71.9 1.001 L 77.1 54.801 L 77.3 54.801 L 82.2 1.001 L 91.7 1.001 L 84.6 71.001 L 70.9 71.001 L 65.9 23.801 L 65.7 23.801 L 60.7 71.001 L 46.1 71.001 Z M 168 71.001 L 180.7 35.201 L 168.6 1.001 L 180.2 1.001 L 187.6 23.601 L 187.8 23.601 L 195.4 1.001 L 205.8 1.001 L 193.7 35.201 L 206.4 71.001 L 194.8 71.001 L 186.8 46.601 L 186.6 46.601 L 178.4 71.001 L 168 71.001 Z M 95.4 54.401 L 95.4 50.401 L 105.8 50.401 L 105.8 55.201 Q 105.8 61.207 110.247 61.908 A 8.05 8.05 0 0 0 111.5 62.001 Q 114.3 62.001 115.75 60.351 Q 117.138 58.771 117.197 55.314 A 18.22 18.22 0 0 0 117.2 55.001 A 16.438 16.438 0 0 0 116.668 50.742 A 13.651 13.651 0 0 0 115.2 47.251 A 19.081 19.081 0 0 0 113.642 45.055 Q 111.534 42.45 107.8 39.201 A 72.472 72.472 0 0 1 103.95 35.563 Q 100.282 31.814 98.425 28.573 A 20.769 20.769 0 0 1 98.3 28.351 A 21.525 21.525 0 0 1 95.68 19.461 A 26.199 26.199 0 0 1 95.6 17.401 A 26.379 26.379 0 0 1 96.052 12.358 Q 96.627 9.407 97.934 7.11 A 13.862 13.862 0 0 1 99.8 4.551 A 13.5 13.5 0 0 1 106.33 0.695 Q 108.517 0.098 111.133 0.014 A 27.056 27.056 0 0 1 112 0.001 Q 119.9 0.001 123.95 4.551 Q 128 9.101 128 17.601 L 128 20.501 L 117.6 20.501 L 117.6 16.901 Q 117.6 13.488 116.342 11.827 A 4.111 4.111 0 0 0 116.2 11.651 A 4.506 4.506 0 0 0 113.736 10.179 A 7.037 7.037 0 0 0 112.1 10.001 Q 106.6 10.001 106.6 16.701 Q 106.6 20.501 108.65 23.801 Q 110.468 26.728 114.922 30.756 A 82.526 82.526 0 0 0 116.1 31.801 Q 123 37.801 125.6 42.701 Q 128.2 47.601 128.2 54.201 Q 128.2 60.335 126.038 64.434 A 13.911 13.911 0 0 1 123.95 67.401 A 13.66 13.66 0 0 1 117.354 71.295 Q 115.135 71.901 112.48 71.987 A 27.431 27.431 0 0 1 111.6 72.001 A 22.4 22.4 0 0 1 106.875 71.534 Q 102.287 70.543 99.5 67.451 Q 96.041 63.612 95.5 56.96 A 31.618 31.618 0 0 1 95.4 54.401 Z M 134.5 71.001 L 134.5 1.001 L 164.5 1.001 L 164.5 11.001 L 145.5 11.001 L 145.5 29.501 L 160.6 29.501 L 160.6 39.501 L 145.5 39.501 L 145.5 61.001 L 164.5 61.001 L 164.5 71.001 L 134.5 71.001 Z M 0 71.001 L 11.4 1.001 L 26.3 1.001 L 37.7 71.001 L 26.7 71.001 L 24.7 57.101 L 24.7 57.301 L 12.2 57.301 L 10.2 71.001 L 0 71.001 Z M 13.5 47.801 L 23.4 47.801 L 18.5 13.201 L 18.3 13.201 L 13.5 47.801 Z" vector-effect="non-scaling-stroke"/></g></svg>